<mxfile host="app.diagrams.net" modified="2023-09-28T08:36:19.325Z" agent="Mozilla/5.0 (Windows NT 10.0; Win64; x64) AppleWebKit/537.36 (KHTML, like Gecko) Chrome/116.0.0.0 Safari/537.36" etag="8rCaf1hmosfIU1qPabCb" version="21.7.5" type="device">
  <diagram name="Страница — 1" id="K8Wx1m4RjslwDhSuhDEU">
    <mxGraphModel dx="794" dy="517" grid="1" gridSize="10" guides="1" tooltips="1" connect="1" arrows="1" fold="1" page="1" pageScale="1" pageWidth="1169" pageHeight="827" math="0" shadow="0">
      <root>
        <mxCell id="0" />
        <mxCell id="1" parent="0" />
        <mxCell id="4CcN1vGno0O6_xGIugly-1" value="" style="rounded=0;whiteSpace=wrap;html=1;fillColor=#f8cecc;strokeColor=#b85450;" parent="1" vertex="1">
          <mxGeometry x="10" y="20" width="1110" height="790" as="geometry" />
        </mxCell>
        <mxCell id="0_5SW117yoGIcgHpQb6C-11" style="edgeStyle=orthogonalEdgeStyle;rounded=0;orthogonalLoop=1;jettySize=auto;html=1;exitX=1;exitY=0.5;exitDx=0;exitDy=0;entryX=0.5;entryY=1;entryDx=0;entryDy=0;" edge="1" parent="1" source="0_5SW117yoGIcgHpQb6C-1" target="0_5SW117yoGIcgHpQb6C-10">
          <mxGeometry relative="1" as="geometry" />
        </mxCell>
        <mxCell id="0_5SW117yoGIcgHpQb6C-1" value="" style="rounded=1;whiteSpace=wrap;html=1;" vertex="1" parent="1">
          <mxGeometry x="370" y="500" width="160" height="210" as="geometry" />
        </mxCell>
        <mxCell id="0_5SW117yoGIcgHpQb6C-4" value="" style="endArrow=none;html=1;rounded=0;entryX=1;entryY=0.5;entryDx=0;entryDy=0;exitX=0;exitY=0.5;exitDx=0;exitDy=0;" edge="1" parent="1" source="0_5SW117yoGIcgHpQb6C-1" target="0_5SW117yoGIcgHpQb6C-1">
          <mxGeometry width="50" height="50" relative="1" as="geometry">
            <mxPoint x="170" y="560" as="sourcePoint" />
            <mxPoint x="220" y="510" as="targetPoint" />
          </mxGeometry>
        </mxCell>
        <mxCell id="0_5SW117yoGIcgHpQb6C-5" value="&lt;b&gt;&lt;u&gt;&lt;font face=&quot;Georgia&quot;&gt;Бажаєте здійснити перевірку?&lt;/font&gt;&lt;/u&gt;&lt;/b&gt;" style="text;html=1;strokeColor=none;fillColor=none;align=center;verticalAlign=middle;whiteSpace=wrap;rounded=0;" vertex="1" parent="1">
          <mxGeometry x="380" y="500" width="140" height="90" as="geometry" />
        </mxCell>
        <mxCell id="0_5SW117yoGIcgHpQb6C-8" value="" style="verticalLabelPosition=bottom;verticalAlign=top;html=1;shape=mxgraph.basic.plaque;dx=6;whiteSpace=wrap;fillColor=#76608a;strokeColor=#432D57;fontColor=#ffffff;" vertex="1" parent="1">
          <mxGeometry x="390" y="620" width="120" height="70" as="geometry" />
        </mxCell>
        <mxCell id="0_5SW117yoGIcgHpQb6C-9" value="&lt;u style=&quot;border-color: var(--border-color);&quot;&gt;&lt;font face=&quot;Georgia&quot;&gt;Натиснить &quot;СЮДИ&quot; для здійснення перевірки&lt;/font&gt;&lt;/u&gt;" style="text;html=1;strokeColor=none;fillColor=none;align=center;verticalAlign=middle;whiteSpace=wrap;rounded=0;" vertex="1" parent="1">
          <mxGeometry x="390" y="635" width="120" height="40" as="geometry" />
        </mxCell>
        <mxCell id="0_5SW117yoGIcgHpQb6C-28" style="edgeStyle=orthogonalEdgeStyle;rounded=0;orthogonalLoop=1;jettySize=auto;html=1;exitX=1;exitY=0.5;exitDx=0;exitDy=0;" edge="1" parent="1" source="0_5SW117yoGIcgHpQb6C-10" target="0_5SW117yoGIcgHpQb6C-26">
          <mxGeometry relative="1" as="geometry" />
        </mxCell>
        <mxCell id="0_5SW117yoGIcgHpQb6C-10" value="" style="rounded=1;whiteSpace=wrap;html=1;" vertex="1" parent="1">
          <mxGeometry x="620" y="290" width="290" height="287" as="geometry" />
        </mxCell>
        <mxCell id="0_5SW117yoGIcgHpQb6C-12" value="" style="endArrow=none;html=1;rounded=0;entryX=0.25;entryY=0;entryDx=0;entryDy=0;exitX=0.25;exitY=1;exitDx=0;exitDy=0;" edge="1" parent="1" source="0_5SW117yoGIcgHpQb6C-10" target="0_5SW117yoGIcgHpQb6C-10">
          <mxGeometry width="50" height="50" relative="1" as="geometry">
            <mxPoint x="640" y="480" as="sourcePoint" />
            <mxPoint x="690" y="430" as="targetPoint" />
          </mxGeometry>
        </mxCell>
        <mxCell id="0_5SW117yoGIcgHpQb6C-13" value="&lt;font face=&quot;Georgia&quot;&gt;Поточний&lt;br&gt;стан&amp;nbsp;&lt;br&gt;чистоти&lt;br&gt;повітря&lt;/font&gt;" style="text;html=1;strokeColor=none;fillColor=none;align=center;verticalAlign=middle;whiteSpace=wrap;rounded=0;" vertex="1" parent="1">
          <mxGeometry x="630" y="310" width="60" height="80" as="geometry" />
        </mxCell>
        <mxCell id="0_5SW117yoGIcgHpQb6C-14" value="" style="shape=flexArrow;endArrow=classic;html=1;rounded=0;exitX=0.5;exitY=1;exitDx=0;exitDy=0;fillColor=#76608a;strokeColor=#432D57;" edge="1" parent="1" source="0_5SW117yoGIcgHpQb6C-13">
          <mxGeometry width="50" height="50" relative="1" as="geometry">
            <mxPoint x="650" y="439.99625000000003" as="sourcePoint" />
            <mxPoint x="660" y="440" as="targetPoint" />
          </mxGeometry>
        </mxCell>
        <mxCell id="0_5SW117yoGIcgHpQb6C-15" value="" style="ellipse;shape=cloud;whiteSpace=wrap;html=1;fillColor=#647687;fontColor=#ffffff;strokeColor=#314354;" vertex="1" parent="1">
          <mxGeometry x="620" y="470" width="70" height="70" as="geometry" />
        </mxCell>
        <mxCell id="0_5SW117yoGIcgHpQb6C-16" value="&lt;font face=&quot;Georgia&quot; style=&quot;font-size: 17px;&quot;&gt;15 %&lt;/font&gt;" style="text;html=1;strokeColor=none;fillColor=none;align=center;verticalAlign=middle;whiteSpace=wrap;rounded=0;" vertex="1" parent="1">
          <mxGeometry x="625" y="490" width="60" height="30" as="geometry" />
        </mxCell>
        <mxCell id="0_5SW117yoGIcgHpQb6C-17" value="&lt;font face=&quot;Georgia&quot;&gt;Для регулювання чистоти повітря використовуйте: &quot;стрілку вгору&quot; або &quot;стрілку вниз&quot;&lt;/font&gt;" style="text;html=1;strokeColor=none;fillColor=none;align=center;verticalAlign=middle;whiteSpace=wrap;rounded=0;" vertex="1" parent="1">
          <mxGeometry x="710" y="295" width="170" height="110" as="geometry" />
        </mxCell>
        <mxCell id="0_5SW117yoGIcgHpQb6C-18" value="" style="triangle;whiteSpace=wrap;html=1;rotation=90;fillColor=#76608a;fontColor=#ffffff;strokeColor=#432D57;" vertex="1" parent="1">
          <mxGeometry x="720" y="480" width="60" height="80" as="geometry" />
        </mxCell>
        <mxCell id="0_5SW117yoGIcgHpQb6C-19" value="" style="triangle;whiteSpace=wrap;html=1;direction=south;rotation=-180;fillColor=#76608a;fontColor=#ffffff;strokeColor=#432D57;" vertex="1" parent="1">
          <mxGeometry x="710" y="385" width="80" height="60" as="geometry" />
        </mxCell>
        <mxCell id="0_5SW117yoGIcgHpQb6C-20" value="&lt;font face=&quot;Georgia&quot;&gt;Змінене значення&lt;/font&gt;" style="text;html=1;strokeColor=none;fillColor=none;align=center;verticalAlign=middle;whiteSpace=wrap;rounded=0;" vertex="1" parent="1">
          <mxGeometry x="790" y="500" width="110" height="40" as="geometry" />
        </mxCell>
        <mxCell id="0_5SW117yoGIcgHpQb6C-22" value="&lt;font face=&quot;Georgia&quot; style=&quot;font-size: 19px;&quot;&gt;65 %&lt;/font&gt;" style="ellipse;shape=cloud;whiteSpace=wrap;html=1;fillColor=#647687;fontColor=#ffffff;strokeColor=#314354;" vertex="1" parent="1">
          <mxGeometry x="801.25" y="368.5" width="87.5" height="76.5" as="geometry" />
        </mxCell>
        <mxCell id="0_5SW117yoGIcgHpQb6C-25" value="" style="shape=flexArrow;endArrow=classic;html=1;rounded=0;fillColor=#76608a;strokeColor=#432D57;width=15.833333333333334;endSize=6.3500000000000005;" edge="1" parent="1">
          <mxGeometry width="50" height="50" relative="1" as="geometry">
            <mxPoint x="851" y="502" as="sourcePoint" />
            <mxPoint x="850" y="450" as="targetPoint" />
          </mxGeometry>
        </mxCell>
        <mxCell id="0_5SW117yoGIcgHpQb6C-26" value="" style="rounded=1;whiteSpace=wrap;html=1;" vertex="1" parent="1">
          <mxGeometry x="860" y="610" width="200" height="140" as="geometry" />
        </mxCell>
        <mxCell id="0_5SW117yoGIcgHpQb6C-29" value="" style="endArrow=none;html=1;rounded=0;exitX=0.5;exitY=1;exitDx=0;exitDy=0;entryX=0.5;entryY=0;entryDx=0;entryDy=0;" edge="1" parent="1" source="0_5SW117yoGIcgHpQb6C-26" target="0_5SW117yoGIcgHpQb6C-26">
          <mxGeometry width="50" height="50" relative="1" as="geometry">
            <mxPoint x="780" y="650" as="sourcePoint" />
            <mxPoint x="830" y="600" as="targetPoint" />
          </mxGeometry>
        </mxCell>
        <mxCell id="0_5SW117yoGIcgHpQb6C-30" value="&lt;font face=&quot;Georgia&quot;&gt;Показник успішно змінено&lt;/font&gt;" style="text;html=1;strokeColor=none;fillColor=none;align=center;verticalAlign=middle;whiteSpace=wrap;rounded=0;" vertex="1" parent="1">
          <mxGeometry x="880" y="615" width="60" height="60" as="geometry" />
        </mxCell>
        <mxCell id="0_5SW117yoGIcgHpQb6C-31" value="&lt;font face=&quot;Georgia&quot;&gt;Поточний стан:&lt;/font&gt;" style="text;html=1;strokeColor=none;fillColor=none;align=center;verticalAlign=middle;whiteSpace=wrap;rounded=0;" vertex="1" parent="1">
          <mxGeometry x="960" y="620" width="100" height="50" as="geometry" />
        </mxCell>
        <mxCell id="0_5SW117yoGIcgHpQb6C-32" value="" style="endArrow=none;html=1;rounded=0;entryX=1;entryY=0.5;entryDx=0;entryDy=0;" edge="1" parent="1" target="0_5SW117yoGIcgHpQb6C-26">
          <mxGeometry width="50" height="50" relative="1" as="geometry">
            <mxPoint x="960" y="680" as="sourcePoint" />
            <mxPoint x="830" y="600" as="targetPoint" />
          </mxGeometry>
        </mxCell>
        <mxCell id="0_5SW117yoGIcgHpQb6C-33" value="&lt;font face=&quot;Georgia&quot; style=&quot;font-size: 19px;&quot;&gt;65 %&lt;/font&gt;" style="ellipse;shape=cloud;whiteSpace=wrap;html=1;fillColor=#647687;fontColor=#ffffff;strokeColor=#314354;" vertex="1" parent="1">
          <mxGeometry x="975" y="675" width="70" height="65" as="geometry" />
        </mxCell>
        <mxCell id="0_5SW117yoGIcgHpQb6C-34" value="" style="endArrow=none;html=1;rounded=0;exitX=0;exitY=0.5;exitDx=0;exitDy=0;" edge="1" parent="1" source="0_5SW117yoGIcgHpQb6C-26">
          <mxGeometry width="50" height="50" relative="1" as="geometry">
            <mxPoint x="780" y="690" as="sourcePoint" />
            <mxPoint x="960" y="680" as="targetPoint" />
          </mxGeometry>
        </mxCell>
        <mxCell id="0_5SW117yoGIcgHpQb6C-35" value="&lt;font face=&quot;Georgia&quot;&gt;Завершити?&lt;/font&gt;" style="ellipse;whiteSpace=wrap;html=1;fillColor=#76608a;fontColor=#ffffff;strokeColor=#432D57;" vertex="1" parent="1">
          <mxGeometry x="862.5" y="692.5" width="95" height="30" as="geometry" />
        </mxCell>
      </root>
    </mxGraphModel>
  </diagram>
</mxfile>
